Patient4_TMGait_0pt7_01_right_33_GRF.mot
version=1
nRows=52
nColumns=19
inDegrees=no
endheader
time	F1x	F1y	F1z	M1x	M1y	M1z	F2x	F2y	F2z	M2x	M2y	M2z	EC1x	EC1y	EC1z	EC2x	EC2y	EC2z
37.56	6.6029	743.0888	92.9092	-266.5293	-87.1277	778.786	-24.195	5.939	18.4634	-4.0487	-11.2754	16.6018	-0.0592	0.0182	-0.0073	-0.0462	0.0165	0.9585
37.5715	8.3747	740.0989	83.7438	-264.6254	-77.8391	766.4629	-16.4576	5.4696	12.5418	-2.2696	-7.6018	12.9375	-0.0592	0.0182	-0.0073	-0.0462	0.0165	0.9585
37.583	10.695	735.453	75.4448	-262.2729	-69.0258	752.7501	-9.9178	4.9561	7.4344	-0.7624	-4.4287	9.6934	-0.0592	0.0182	-0.0073	-0.0462	0.0165	0.9585
37.5945	13.4872	729.7105	68.4011	-259.7203	-61.0888	738.6138	-4.8926	4.4511	3.487	0.38142	-1.9878	7.058	-0.0592	0.0182	-0.0073	-0.0462	0.0165	0.9585
37.606	16.5472	723.6769	62.8767	-257.2412	-54.3666	725.0035	-1.437	4.0654	0.71028	1.1832	-0.26506	5.2061	-0.0592	0.0182	-0.0073	-0.0462	0.0165	0.9585
37.6175	19.7321	718.1979	58.7703	-255.0973	-48.8535	712.7148	0.73115	3.7574	-1.0472	1.68	0.82191	3.9612	-0.0592	0.0182	-0.0073	-0.0462	0.0165	0.9585
37.629	22.8945	713.9979	56.047	-253.4904	-44.5966	702.3705	1.8433	3.5532	-2.008	1.9438	1.4346	3.2564	-0.0592	0.0182	-0.0073	-0.0462	0.0165	0.9585
37.6405	25.9358	711.5608	54.4634	-252.5484	-41.4274	694.2949	2.2586	3.3612	-2.4112	2.0216	1.712	2.8322	-0.0592	0.0182	-0.0073	-0.0462	0.0165	0.9585
37.652	28.8241	711.1393	53.8589	-252.3108	-39.2285	688.5952	2.1739	3.1405	-2.4577	1.9594	1.7966	2.5781	-0.0592	0.0182	-0.0073	-0.0462	0.0165	0.9585
37.6635	31.5533	712.673	54.014	-252.7202	-37.8135	685.069	1.8573	2.7591	-2.3131	1.7643	1.7763	2.2248	-0.0592	0.0182	-0.0073	-0.0462	0.0165	0.9585
37.675	34.1352	715.8653	54.7716	-253.6464	-37.0411	683.318	1.4019	2.1553	-2.0789	1.4434	1.7162	1.6706	-0.0592	0.0182	-0.0073	-0.0462	0.0165	0.9585
37.6865	36.5927	720.2584	56.0091	-254.9155	-36.7966	682.8386	0.96516	1.1797	-1.8392	0.97113	1.6424	0.68161	-0.0592	0.0182	-0.0073	-0.0462	0.0165	0.9585
37.698	38.9568	725.3117	57.6072	-256.3359	-36.9584	683.0424	0.5685	-0.18874	-1.6157	0.34646	1.5546	-0.75667	-0.0592	0.0182	-0.0073	-0.0462	0.0165	0.9585
37.7095	41.2676	730.5282	59.5257	-257.7377	-37.4718	683.4261	0.33677	-2.0079	-1.4296	-0.43991	1.4344	-2.76	-0.0592	0.0182	-0.0073	-0.0462	0.0165	0.9585
37.721	43.638	735.4372	61.6901	-258.9687	-38.2285	683.515	0.28084	-4.1381	-1.2536	-1.3374	1.2404	-5.1573	-0.0592	0.0182	-0.0073	-0.0462	0.0165	0.9585
37.7325	46.0825	739.6239	64.0832	-259.8929	-39.196	682.9297	0.54823	-6.3379	-1.0703	-2.245	0.90753	-7.694	-0.0592	0.0182	-0.0073	-0.0462	0.0165	0.9585
37.744	48.6562	742.7325	66.6143	-260.3983	-40.2692	681.3414	1.1705	-8.0532	-0.83942	-2.946	0.37416	-9.6885	-0.0592	0.0182	-0.0073	-0.0462	0.0165	0.9585
37.7555	51.2784	744.54	69.1977	-260.4154	-41.388	678.611	2.3227	-8.4326	-0.53315	-3.099	-0.44085	-10.1648	-0.0592	0.0182	-0.0073	-0.0462	0.0165	0.9585
37.767	53.8744	744.9424	71.726	-259.9162	-42.4849	674.7029	4.0241	-6.1819	-0.11751	-2.1949	-1.5873	-7.5742	-0.0592	0.0182	-0.0073	-0.0462	0.0165	0.9585
37.7785	56.2651	743.9163	74.0901	-258.8971	-43.5204	669.7257	6.3528	0.37327	0.41331	0.43112	-3.0863	0.019234	-0.0592	0.0182	-0.0073	-0.0462	0.0165	0.9585
37.79	58.3129	741.3554	76.1973	-257.3296	-44.4652	663.6744	9.1484	13.2705	1.0298	5.58	-4.843	15.0287	-0.0592	0.0182	-0.0073	-0.0462	0.0165	0.9585
37.8015	59.8146	736.9813	77.8939	-255.1272	-45.2455	656.4356	12.1425	34.5625	1.6527	14.0635	-6.6392	39.8521	-0.0592	0.0182	-0.0073	-0.0462	0.0165	0.9585
37.813	60.7115	730.2106	78.9953	-252.1068	-45.7325	647.5826	14.6545	65.957	2.1196	26.5428	-8.008	76.5367	-0.0592	0.0182	-0.0073	-0.0462	0.0165	0.9585
37.8245	60.9189	720.1986	79.2306	-248.0003	-45.7207	636.4319	15.5167	108.029	2.2157	43.2393	-8.2249	125.7783	-0.0592	0.0182	-0.0073	-0.0462	0.0165	0.9585
37.836	60.5357	705.9259	78.3255	-242.4909	-44.9639	622.0578	13.1014	159.5374	1.6951	63.6445	-6.3742	186.2108	-0.0592	0.0182	-0.0073	-0.0462	0.0165	0.9585
37.8475	59.6478	686.4236	76.028	-235.2827	-43.2279	603.5754	6.6185	216.9404	0.24393	86.3345	-1.8031	253.6968	-0.0592	0.0182	-0.0073	-0.0462	0.0165	0.9585
37.859	58.4168	660.8934	72.1785	-226.1442	-40.3332	580.1665	-3.0789	274.5194	-2.448	109.0287	5.4595	321.4582	-0.0592	0.0182	-0.0073	-0.0462	0.0165	0.9585
37.8705	56.8891	628.7153	66.8523	-214.8905	-36.3337	551.2168	-14.0495	326.5502	-6.5257	129.4863	14.7226	382.4995	-0.0592	0.0182	-0.0073	-0.0462	0.0165	0.9585
37.882	55.0146	589.4516	60.3008	-201.3699	-31.4613	516.2466	-24.6414	370.844	-11.4379	146.8425	24.68	433.969	-0.0592	0.0182	-0.0073	-0.0462	0.0165	0.9585
37.8935	52.5436	542.9678	53.0393	-185.4994	-26.2306	475.14	-33.7504	408.3541	-16.6401	161.496	34.2778	476.7342	-0.0592	0.0182	-0.0073	-0.0462	0.0165	0.9585
37.905	49.2571	489.7871	45.5539	-167.4092	-21.111	428.3351	-40.8258	441.6217	-21.6689	174.4632	42.79	513.7079	-0.0592	0.0182	-0.0073	-0.0462	0.0165	0.9585
37.9165	44.8083	431.2573	38.2944	-147.5076	-16.582	377.0364	-45.607	473.1794	-26.1958	186.7641	49.7714	547.8049	-0.0592	0.0182	-0.0073	-0.0462	0.0165	0.9585
37.928	39.0006	369.5089	31.5496	-126.4876	-12.9422	323.0756	-48.252	504.8651	-30.1442	199.1195	55.206	581.2071	-0.0592	0.0182	-0.0073	-0.0462	0.0165	0.9585
37.9395	31.8072	307.3	25.5077	-105.2672	-10.3627	268.8582	-49.027	537.5773	-33.6575	211.8663	59.3866	614.9782	-0.0592	0.0182	-0.0073	-0.0462	0.0165	0.9585
37.951	23.5521	247.5837	20.2357	-84.8577	-8.7938	216.8901	-48.4723	571.5474	-37.0202	225.0603	62.8379	649.5047	-0.0592	0.0182	-0.0073	-0.0462	0.0165	0.9585
37.9625	14.9328	193.0611	15.7226	-66.1913	-7.992	169.489	-47.0376	606.4424	-40.5034	238.5397	66.0451	684.5068	-0.0592	0.0182	-0.0073	-0.0462	0.0165	0.9585
37.974	6.8731	145.5495	12.0163	-49.9104	-7.6825	128.1595	-45.2232	641.4894	-44.2639	251.978	69.359	719.2519	-0.0592	0.0182	-0.0073	-0.0462	0.0165	0.9585
37.9855	0.1568	105.8702	9.05	-36.3125	-7.5323	93.5868	-43.3557	675.489	-48.2869	264.9064	72.8821	752.4767	-0.0592	0.0182	-0.0073	-0.0462	0.0165	0.9585
37.997	-4.7397	73.8902	6.7674	-25.3578	-7.3311	65.6255	-41.6908	707.0673	-52.4099	276.7993	76.5098	782.7359	-0.0592	0.0182	-0.0073	-0.0462	0.0165	0.9585
38.0085	-7.7457	48.9579	4.995	-16.8202	-6.9031	43.7323	-40.2389	734.9629	-56.3263	287.1948	79.9068	808.6711	-0.0592	0.0182	-0.0073	-0.0462	0.0165	0.9585
38.02	-8.9711	30.1357	3.6176	-10.3771	-6.1894	27.1167	-38.9153	758.3231	-59.6711	295.7916	82.6395	829.4012	-0.0592	0.0182	-0.0073	-0.0462	0.0165	0.9585
38.0315	-8.695	16.4794	2.4751	-5.7052	-5.1472	15.0218	-37.5441	776.6014	-62.1542	302.407	84.3323	844.3731	-0.0592	0.0182	-0.0073	-0.0462	0.0165	0.9585
38.043	-7.305	7.0982	1.5375	-2.4996	-3.8877	6.6716	-36.0474	789.4567	-63.6617	306.923	84.835	853.3247	-0.0592	0.0182	-0.0073	-0.0462	0.0165	0.9585
38.0545	-5.4357	1.2413	0.79472	-0.50009	-2.6172	1.4451	-34.3718	796.7086	-64.297	309.2682	84.2437	856.1545	-0.0592	0.0182	-0.0073	-0.0462	0.0165	0.9585
38.066	-3.5595	-1.9046	0.28285	0.57334	-1.5314	-1.3706	-32.5226	798.4937	-64.2413	309.482	82.7647	853.1081	-0.0592	0.0182	-0.0073	-0.0462	0.0165	0.9585
38.0775	-1.9565	-3.1394	-0.044314	0.994	-0.68879	-2.4593	-30.4795	795.377	-63.6761	307.7776	80.5994	844.8574	-0.0592	0.0182	-0.0073	-0.0462	0.0165	0.9585
38.089	-0.7021	-3.1839	-0.22723	1.0063	-0.085982	-2.4648	-28.2237	788.4606	-62.7032	304.5721	77.8762	832.6334	-0.0592	0.0182	-0.0073	-0.0462	0.0165	0.9585
38.1005	0.17786	-2.5555	-0.29975	0.79025	0.29352	-1.8548	-25.7514	779.0451	-61.4292	300.3638	74.7295	817.8369	-0.0592	0.0182	-0.0073	-0.0462	0.0165	0.9585
38.112	0.74426	-1.6638	-0.31256	0.4826	0.50877	-1.011	-23.0971	768.4528	-59.9514	295.6479	71.2967	801.8958	-0.0592	0.0182	-0.0073	-0.0462	0.0165	0.9585
38.1235	1.0561	-0.72398	-0.27748	0.16055	0.5883	-0.1069	-20.3155	757.7688	-58.3947	290.8304	67.7446	785.952	-0.0592	0.0182	-0.0073	-0.0462	0.0165	0.9585
38.135	1.1904	0.11244	-0.23424	-0.1268	0.59395	0.69437	-17.4932	747.8314	-56.8904	286.2211	64.2542	770.8927	-0.0592	0.0182	-0.0073	-0.0462	0.0165	0.9585
38.1465	1.195	0.78546	-0.18315	-0.35741	0.54234	1.351	-14.6757	739.1896	-55.5482	282.0247	60.9687	757.2764	-0.0592	0.0182	-0.0073	-0.0462	0.0165	0.9585
